<svg xmlns="http://www.w3.org/2000/svg" width="640" height="480" viewBox="0 0 640 480" role="img" aria-labelledby="title desc">
  <title id="title">Renkli kahvaltı kasesi</title>
  <desc id="desc">Meyve dilimleri ve tohumlarla süslenmiş pembe kase</desc>
  <defs>
    <linearGradient id="bg" x1="0" y1="0" x2="1" y2="1">
      <stop offset="0%" stop-color="#fff0f5" />
      <stop offset="100%" stop-color="#ffd1dc" />
    </linearGradient>
    <linearGradient id="bowl" x1="0" y1="0" x2="0" y2="1">
      <stop offset="0%" stop-color="#ff80ab" />
      <stop offset="100%" stop-color="#f50057" />
    </linearGradient>
  </defs>
  <rect width="640" height="480" fill="url(#bg)" rx="48" />
  <ellipse cx="320" cy="320" rx="220" ry="105" fill="#ffe4ec" />
  <ellipse cx="320" cy="280" rx="220" ry="105" fill="url(#bowl)" />
  <ellipse cx="320" cy="260" rx="200" ry="85" fill="#fff8fb" />
  <circle cx="250" cy="220" r="42" fill="#ffca28" opacity="0.9" />
  <circle cx="360" cy="230" r="36" fill="#ab47bc" opacity="0.85" />
  <circle cx="300" cy="250" r="28" fill="#80cbc4" opacity="0.85" />
  <circle cx="410" cy="250" r="24" fill="#4dd0e1" opacity="0.85" />
  <path d="M200 250c40 50 80 70 120 72" stroke="#ffe082" stroke-width="16" stroke-linecap="round" fill="none" />
  <path d="M320 322c52-2 102-22 148-72" stroke="#ffe082" stroke-width="16" stroke-linecap="round" fill="none" />
  <circle cx="220" cy="280" r="6" fill="#4e342e" />
  <circle cx="260" cy="300" r="6" fill="#4e342e" />
  <circle cx="300" cy="310" r="6" fill="#4e342e" />
  <circle cx="340" cy="300" r="6" fill="#4e342e" />
  <circle cx="380" cy="285" r="6" fill="#4e342e" />
  <circle cx="420" cy="270" r="6" fill="#4e342e" />
</svg>
