<svg xmlns="http://www.w3.org/2000/svg" width="640" height="480" viewBox="0 0 640 480" role="img" aria-labelledby="title desc">
  <title id="title">Izgara akşam tabağı</title>
  <desc id="desc">Protein, sebze ve tahıl garnitürü içeren modern akşam tablosu</desc>
  <defs>
    <linearGradient id="plate" x1="0" y1="0" x2="1" y2="1">
      <stop offset="0%" stop-color="#ffffff" />
      <stop offset="100%" stop-color="#f1f8e9" />
    </linearGradient>
    <linearGradient id="bg" x1="0" y1="0" x2="1" y2="1">
      <stop offset="0%" stop-color="#e8f5e9" />
      <stop offset="100%" stop-color="#c8e6c9" />
    </linearGradient>
  </defs>
  <rect width="640" height="480" fill="url(#bg)" rx="48" />
  <ellipse cx="320" cy="260" rx="230" ry="160" fill="#a5d6a7" opacity="0.35" />
  <ellipse cx="320" cy="240" rx="210" ry="145" fill="url(#plate)" />
  <ellipse cx="320" cy="240" rx="140" ry="95" fill="#f9fbe7" />
  <path d="M220 180c40 60 120 60 200 30" fill="none" stroke="#ef6c00" stroke-width="24" stroke-linecap="round" />
  <path d="M220 220c40 50 120 50 200 20" fill="none" stroke="#ffb74d" stroke-width="24" stroke-linecap="round" />
  <circle cx="260" cy="230" r="28" fill="#ff7043" />
  <circle cx="300" cy="240" r="26" fill="#ff5722" />
  <circle cx="340" cy="230" r="24" fill="#ff8a65" />
  <rect x="230" y="270" width="200" height="32" rx="16" fill="#c5e1a5" />
  <rect x="230" y="312" width="200" height="32" rx="16" fill="#81c784" />
  <path d="M210 320q40-45 60 0" stroke="#33691e" stroke-width="10" fill="none" stroke-linecap="round" />
  <path d="M370 320q40-45 60 0" stroke="#33691e" stroke-width="10" fill="none" stroke-linecap="round" />
  <circle cx="430" cy="220" r="44" fill="#aed581" />
  <circle cx="430" cy="220" r="24" fill="#7cb342" />
</svg>
