<svg xmlns="http://www.w3.org/2000/svg" width="640" height="480" viewBox="0 0 640 480" role="img" aria-labelledby="title desc">
  <title id="title">Renkli öğle yemeği kutusu</title>
  <desc id="desc">Protein, sebze ve tam tahılları gösteren pastel bento kutusu</desc>
  <defs>
    <linearGradient id="panel" x1="0" y1="0" x2="1" y2="1">
      <stop offset="0%" stop-color="#e0f7fa" />
      <stop offset="100%" stop-color="#b2ebf2" />
    </linearGradient>
    <linearGradient id="panel2" x1="0" y1="0" x2="1" y2="1">
      <stop offset="0%" stop-color="#fff8e1" />
      <stop offset="100%" stop-color="#ffe0b2" />
    </linearGradient>
  </defs>
  <rect width="640" height="480" fill="#fef9ff" rx="48" />
  <rect x="80" y="90" width="480" height="300" rx="42" fill="#ffc1e3" opacity="0.35" />
  <rect x="110" y="120" width="420" height="240" rx="32" fill="white" stroke="#ff80ab" stroke-width="10" />
  <rect x="140" y="140" width="170" height="200" rx="24" fill="url(#panel)" />
  <rect x="330" y="140" width="170" height="90" rx="24" fill="url(#panel2)" />
  <rect x="330" y="245" width="170" height="95" rx="24" fill="#f8bbd0" />
  <circle cx="190" cy="190" r="50" fill="#66bb6a" opacity="0.9" />
  <circle cx="190" cy="250" r="50" fill="#81c784" opacity="0.9" />
  <path d="M330 165h120" stroke="#ff7043" stroke-width="16" stroke-linecap="round" />
  <path d="M330 205h120" stroke="#ff7043" stroke-width="16" stroke-linecap="round" />
  <rect x="360" y="260" width="50" height="50" rx="16" fill="#4db6ac" />
  <rect x="420" y="260" width="50" height="50" rx="16" fill="#26c6da" />
  <circle cx="455" cy="190" r="28" fill="#f06292" />
  <rect x="145" y="150" width="150" height="20" rx="10" fill="#fff" opacity="0.55" />
</svg>
