<svg xmlns="http://www.w3.org/2000/svg" width="640" height="480" viewBox="0 0 640 480" role="img" aria-labelledby="title desc">
  <title id="title">Smoothie ara öğünü</title>
  <desc id="desc">Katmanlı smoothie bardağı ve badem krakerleri</desc>
  <defs>
    <linearGradient id="smoothie" x1="0" y1="0" x2="0" y2="1">
      <stop offset="0%" stop-color="#b388ff" />
      <stop offset="50%" stop-color="#7c4dff" />
      <stop offset="100%" stop-color="#651fff" />
    </linearGradient>
    <linearGradient id="bg" x1="0" y1="0" x2="1" y2="1">
      <stop offset="0%" stop-color="#f3e5f5" />
      <stop offset="100%" stop-color="#ede7f6" />
    </linearGradient>
  </defs>
  <rect width="640" height="480" fill="url(#bg)" rx="48" />
  <ellipse cx="240" cy="360" rx="110" ry="28" fill="#d1c4e9" />
  <ellipse cx="420" cy="360" rx="120" ry="32" fill="#d1c4e9" />
  <rect x="370" y="130" width="100" height="220" rx="48" fill="url(#smoothie)" stroke="#ede7f6" stroke-width="8" />
  <rect x="385" y="110" width="20" height="70" rx="10" fill="#fff" opacity="0.7" />
  <rect x="415" y="110" width="20" height="70" rx="10" fill="#fff" opacity="0.5" />
  <circle cx="420" cy="220" r="20" fill="#ffeb3b" opacity="0.7" />
  <circle cx="420" cy="270" r="18" fill="#ffe082" opacity="0.7" />
  <circle cx="420" cy="180" r="18" fill="#c5e1a5" opacity="0.7" />
  <rect x="190" y="240" width="120" height="90" rx="28" fill="#ffcc80" />
  <rect x="170" y="230" width="70" height="70" rx="18" fill="#ffe0b2" />
  <rect x="250" y="260" width="90" height="70" rx="18" fill="#ef9a9a" />
  <path d="M200 250l20 15 30-15" fill="none" stroke="#6d4c41" stroke-width="6" stroke-linecap="round" />
  <circle cx="210" cy="285" r="6" fill="#6d4c41" />
  <circle cx="275" cy="295" r="6" fill="#6d4c41" />
</svg>
